<svg xmlns="http://www.w3.org/2000/svg" width="152.055" height="22.162" viewBox="0 0 152.055 22.162">
  <g id="Grupo_617" data-name="Grupo 617" transform="translate(-2245 -19221.158)">
    <g id="Grupo_616" data-name="Grupo 616">
      <g id="Grupo_615" data-name="Grupo 615">
        <g id="Grupo_614" data-name="Grupo 614">
          <g id="Grupo_562" data-name="Grupo 562" transform="translate(2087 168.157)">
            <path id="path14" d="M75.821-79.969V-75.4h6.956v17.116H87.7V-75.4h6.956v-4.573Z" transform="translate(105.236 19133.199)" fill="#5876aa"/>
            <path id="path16" d="M311.378-79.969H298.972v4.611h12.07c1.779,0,2.468.811,2.468,2.877v.773H303.5c-3.81,0-5.7,1.9-5.7,6.2v1.025c0,4.423,1.965,6.2,5.915,6.2h14.676V-72.535c0-5.457-1.807-7.434-7.011-7.434m-7.152,17.053c-.746,0-1.583-.372-1.583-2.236s.818-2.188,1.583-2.188h9.284v4.424Z" transform="translate(-49.234 19133.199)" fill="#5876aa"/>
            <path id="path18" d="M445.876-79.969h-12.4v4.611H445.55c1.768,0,2.458.811,2.458,2.877v.773h-10c-3.81,0-5.708,1.9-5.708,6.2v1.025c0,4.423,1.965,6.2,5.913,6.2h14.676V-72.535c0-5.457-1.807-7.434-7.012-7.434m-7.152,17.053c-.746,0-1.582-.372-1.582-2.236s.819-2.188,1.582-2.188h9.284v4.424Z" transform="translate(-142.832 19133.199)" fill="#5876aa"/>
            <path id="path20" d="M142.91-79.969V-75.4h6.956v17.116H154.8V-75.4h6.957v-4.573Z" transform="translate(58.551 19133.199)" fill="#5876aa"/>
            <path id="path22" d="M368.753-79.969V-75.4h6.956v17.116h4.925V-75.4h6.957v-4.573Z" transform="translate(-98.611 19133.199)" fill="#5876aa"/>
            <path id="path24" d="M244.923-65.853v-6.492c0-5.672-2.2-7.591-7.171-7.591h-13.2v21.68h13.427c5.271,0,6.94-2.624,6.94-7.6m-5.03.1c0,2.066-.7,2.877-2.468,2.877h-7.934V-75.325h7.934c1.769,0,2.468.81,2.468,2.9Z" transform="translate(1.732 19133.176)" fill="#5876aa"/>
            <path id="path26" d="M16.1-63.977C16-64.172,9.424-77,8.613-78.261A4.587,4.587,0,0,0,4.4-80.729c-2.012,0-4.4.884-4.4,5.717V-58.8H4.852V-72.321c0-.968-.055-2.412-.065-2.7-.009-.241,0-.465.122-.53.129-.086.269.046.372.223s6.192,12.255,7.5,14.294A4.565,4.565,0,0,0,17-58.565c2.012,0,4.387-.894,4.387-5.719V-80.5H16.53v13.523c0,.977.055,2.412.074,2.7,0,.234,0,.465-.121.532-.141.084-.279-.047-.382-.234" transform="translate(158 19133.73)" fill="#5876aa"/>
          </g>
        </g>
      </g>
    </g>
  </g>
</svg>
